<?xml version="1.0" standalone="no"?>
<!DOCTYPE svg PUBLIC "-//W3C//DTD SVG 20010904//EN"
 "http://www.w3.org/TR/2001/REC-SVG-20010904/DTD/svg10.dtd">
<svg version="1.0" xmlns="http://www.w3.org/2000/svg"
 width="482.000000pt" height="482.000000pt" viewBox="0 0 482.000000 482.000000"
 preserveAspectRatio="xMidYMid meet">
<metadata>
Created by potrace 1.11, written by Peter Selinger 2001-2013
</metadata>
<g transform="translate(0.000000,482.000000) scale(0.100000,-0.100000)"
fill="#000000" stroke="none">
<path d="M2342 4619 c-64 -11 -140 -48 -192 -95 -37 -33 -100 -141 -100 -170
0 -8 -12 -16 -27 -20 -157 -33 -292 -83 -453 -166 -160 -82 -285 -173 -421
-308 -229 -226 -379 -476 -464 -770 -104 -365 -98 -721 21 -1077 134 -403 412
-743 793 -972 141 -85 296 -146 509 -201 23 -6 42 -15 42 -21 0 -28 59 -128
98 -166 l44 -43 -940 0 c-994 0 -973 1 -956 -44 6 -15 176 -16 2104 -16 1928
0 2098 1 2104 16 17 45 38 44 -956 44 l-940 0 44 43 c39 38 98 138 98 166 0 6
19 15 43 21 367 95 617 232 862 475 276 273 439 587 512 985 24 132 24 438 0
570 -73 400 -230 703 -507 980 -143 143 -266 234 -430 318 -161 83 -296 133
-452 166 -16 4 -28 12 -28 20 0 7 -14 40 -30 74 -35 68 -87 120 -158 156 -42
22 -66 28 -147 40 -11 2 -44 -1 -73 -5z m-409 -596 c-120 -175 -229 -479 -282
-786 -37 -210 -52 -401 -52 -647 0 -461 59 -820 192 -1160 48 -124 69 -165
135 -267 l53 -82 -101 35 c-183 64 -331 150 -497 289 -258 217 -435 520 -513
878 -19 86 -22 133 -22 302 0 220 14 317 75 500 123 370 404 699 753 881 91
47 270 122 298 124 5 0 -13 -30 -39 -67z m984 36 c445 -156 815 -530 962 -974
61 -183 75 -280 75 -500 0 -169 -3 -216 -22 -302 -78 -358 -255 -661 -513
-878 -166 -139 -314 -225 -497 -289 l-101 -35 53 82 c66 102 87 143 135 267
132 338 192 697 192 1155 0 412 -46 731 -151 1046 -51 153 -112 284 -179 383
-28 42 -49 76 -47 76 3 0 44 -14 93 -31z m-517 -144 c99 0 108 2 162 31 l57
32 49 -72 c64 -91 100 -165 150 -301 262 -715 190 -1851 -149 -2340 -46 -68
-54 -74 -68 -61 -36 32 -125 58 -201 58 -76 0 -165 -26 -201 -58 -14 -13 -22
-7 -68 61 -339 489 -411 1625 -149 2340 50 136 86 210 150 301 l49 72 57 -32
c54 -29 63 -31 162 -31z"/>
<path d="M2345 3588 c-31 -17 -225 -210 -241 -240 -8 -15 -14 -44 -14 -65 1
-83 90 -129 170 -88 l30 16 0 -626 0 -625 -25 16 c-34 22 -95 23 -129 1 -15
-10 -34 -34 -42 -54 -24 -57 -7 -86 135 -226 124 -124 129 -127 171 -127 43 0
47 3 177 133 124 124 133 135 133 171 0 72 -40 115 -108 116 -23 0 -54 -7 -67
-16 l-25 -16 0 626 0 627 30 -16 c57 -29 134 -11 157 37 22 44 23 59 8 96 -17
40 -203 234 -247 258 -32 17 -85 18 -113 2z"/>
<path d="M308 409 c-24 -13 -23 -36 1 -49 26 -13 316 -13 342 0 10 6 19 17 19
25 0 8 -9 19 -19 25 -25 13 -320 13 -343 -1z"/>
<path d="M803 413 c-22 -8 -15 -50 10 -57 29 -8 3145 -8 3175 0 26 7 31 48 6
58 -19 7 -3173 7 -3191 -1z"/>
<path d="M4148 409 c-24 -13 -23 -36 1 -49 26 -13 316 -13 342 0 10 6 19 17
19 25 0 8 -9 19 -19 25 -25 13 -320 13 -343 -1z"/>
</g>
</svg>
